<svg width="110" height="42" viewBox="0 0 110 42" fill="none" xmlns="http://www.w3.org/2000/svg">
<path d="M14.8612 6.3032C17.6069 6.3032 20.103 6.97428 22.3494 8.31646C24.5959 9.65863 26.3816 11.4514 27.7064 13.6947C29.0504 15.9381 29.7225 18.4211 29.7225 21.1438V35.8406H23.9623V21.1438C23.9623 18.6512 23.0695 16.5133 21.2838 14.7301C19.5174 12.947 17.3765 12.0554 14.8612 12.0554C12.3652 12.0554 10.2243 12.947 8.43864 14.7301C6.65299 16.5133 5.76017 18.6512 5.76017 21.1438V35.8406H0V21.1438C0 21.1055 0 21.0671 0 21.0288C0 21.0096 0 20.9904 0 20.9712V0H5.76017V9.43813C7.0274 8.44109 8.42904 7.67413 9.96509 7.13726C11.5203 6.58122 13.1524 6.3032 14.8612 6.3032Z" fill="#00403D"/>
<path d="M46.1965 6.15939C48.9038 6.15939 51.3807 6.82089 53.6272 8.14389C55.8736 9.46689 57.6593 11.2405 58.9841 13.4647C60.309 15.6697 61.0002 18.1431 61.0578 20.885V35.8981H55.2976V32.7344C54.0304 33.7123 52.6191 34.4793 51.0639 35.0353C49.5278 35.5722 47.9054 35.8406 46.1965 35.8406C43.4701 35.8406 40.974 35.1791 38.7083 33.8561C36.4619 32.5139 34.6666 30.7212 33.3226 28.4778C31.9977 26.2345 31.3353 23.7419 31.3353 21C31.3353 18.2773 31.9977 15.7943 33.3226 13.5509C34.6666 11.3076 36.4619 9.51483 38.7083 8.17265C40.974 6.83048 43.4701 6.15939 46.1965 6.15939ZM46.1965 30.0884C48.7118 30.0884 50.8527 29.2064 52.6191 27.4424C54.4048 25.6593 55.2976 23.5118 55.2976 21C55.2976 18.5074 54.4048 16.3695 52.6191 14.5863C50.8527 12.8032 48.7118 11.9116 46.1965 11.9116C43.6813 11.9116 41.5308 12.8032 39.7452 14.5863C37.9787 16.3695 37.0955 18.5074 37.0955 21C37.0955 23.5118 37.9787 25.6593 39.7452 27.4424C41.5308 29.2064 43.6813 30.0884 46.1965 30.0884Z" fill="#00403D"/>
<path d="M62.7858 21.1438C62.7858 18.4211 63.4578 15.9381 64.8019 13.6947C66.1459 11.4514 67.9412 9.65863 70.1876 8.31646C72.4341 6.97428 74.9206 6.3032 77.6471 6.3032V12.0554C75.151 12.0554 73.0101 12.947 71.2245 14.7301C69.4388 16.5133 68.546 18.6512 68.546 21.1438V35.8406H62.7858V21.1438Z" fill="#00403D"/>
<path d="M94.2363 6.15939C96.982 6.15939 99.4781 6.83048 101.725 8.17265C103.971 9.51483 105.757 11.3076 107.082 13.5509C108.426 15.7943 109.098 18.2773 109.098 21C109.098 23.7419 108.426 26.2345 107.082 28.4778C105.757 30.7212 103.971 32.5139 101.725 33.8561C99.4781 35.1791 96.982 35.8406 94.2363 35.8406C92.5275 35.8406 90.8954 35.5722 89.3402 35.0353C87.8041 34.4793 86.4025 33.7123 85.1353 32.7344V42H79.3751V20.885C79.4327 18.1431 80.1239 15.6697 81.4488 13.4647C82.7736 11.2405 84.5593 9.46689 86.8057 8.14389C89.0522 6.82089 91.5291 6.15939 94.2363 6.15939ZM94.2363 30.0884C96.7516 30.0884 98.8925 29.2064 100.659 27.4424C102.445 25.6593 103.337 23.5118 103.337 21C103.337 18.5074 102.445 16.3695 100.659 14.5863C98.8925 12.8032 96.7516 11.9116 94.2363 11.9116C91.7403 11.9116 89.5994 12.8032 87.8138 14.5863C86.0281 16.3695 85.1353 18.5074 85.1353 21C85.1353 23.5118 86.0281 25.6593 87.8138 27.4424C89.5994 29.2064 91.7403 30.0884 94.2363 30.0884Z" fill="#00403D"/>
</svg>
